<svg width="111" height="38" viewBox="0 0 111 38" fill="none" xmlns="http://www.w3.org/2000/svg">
<g clip-path="url(#clip0_2_2)">
<path d="M93.8658 1.63768V15.17C93.8658 16.075 93.0329 16.8077 92.0033 16.8077C90.9738 16.8077 90.1409 16.075 90.1409 15.17V1.63768C90.1409 0.73264 90.9738 0 92.0033 0C93.0329 0 93.8658 0.73264 93.8658 1.63768Z" fill="#FFD700"/>
<path d="M87.1611 1.60444C87.1611 2.51404 86.364 3.25037 85.3791 3.25037H82.2384V15.1618C82.2384 16.0714 81.4413 16.8077 80.4564 16.8077C79.4716 16.8077 78.6744 16.0714 78.6744 15.1618V3.29369H75.5337C74.5488 3.29369 73.7517 2.55735 73.7517 1.64775C73.7517 0.738157 74.5488 0.00181797 75.5337 0.00181797H85.473C86.3171 -0.0414961 87.1611 0.694844 87.1611 1.60444Z" fill="#FFD700"/>
<path d="M111 6.20592V15.17C111 16.075 110.159 16.8077 109.12 16.8077C108.08 16.8077 107.239 16.075 107.239 15.17V6.29211C107.239 6.24901 107.239 6.24901 107.239 6.20592C107.239 6.16282 107.239 6.16282 107.239 6.11972C107.19 4.56824 105.705 3.27534 103.923 3.27534C102.092 3.27534 100.656 4.52515 100.607 6.11972C100.607 6.16282 100.607 6.16282 100.607 6.20592C100.607 6.24901 100.607 6.24901 100.607 6.29211V15.17C100.607 16.075 99.7659 16.8077 98.7259 16.8077C97.6867 16.8077 96.8456 16.075 96.8456 15.17V6.20592C96.8456 3.8356 98.3795 1.76696 100.656 0.73264C101.646 0.258581 102.785 0 103.972 0C105.16 0 106.299 0.258581 107.288 0.73264C109.466 1.76696 111 3.8356 111 6.20592Z" fill="#FFD700"/>
<path d="M64.8121 1.60444C64.8121 2.51404 64.0151 3.25037 63.0304 3.25037H59.8891V15.1618C59.8891 16.0714 59.092 16.8077 58.1074 16.8077C57.1228 16.8077 56.3257 16.0714 56.3257 15.1618V3.29369H53.1844C52.1998 3.29369 51.4027 2.55735 51.4027 1.64775C51.4027 0.738157 52.1998 0.00181797 53.1844 0.00181797H63.1242C64.0151 -0.0414961 64.8121 0.694844 64.8121 1.60444Z" fill="#FFD700"/>
<path d="M30.5436 1.63768V15.17C30.5436 16.075 29.7493 16.8077 28.7681 16.8077C27.787 16.8077 26.9927 16.075 26.9927 15.17V10.0846H20.6852V15.17C20.6852 16.075 19.8908 16.8077 18.9097 16.8077C17.9285 16.8077 17.1342 16.075 17.1342 15.17V1.63768C17.1342 0.73264 17.9285 0 18.9097 0C19.8908 0 20.6852 0.73264 20.6852 1.63768V6.72308H26.9927V1.63768C26.9927 0.73264 27.787 0 28.7681 0C29.7493 0 30.5436 0.73264 30.5436 1.63768Z" fill="#FFD700"/>
<path d="M47.6778 6.20592C47.6778 3.8356 46.2345 1.76696 44.0927 0.73264C43.1615 0.258581 42.0906 0 40.9731 0C39.8557 0 38.7848 0.258581 37.8536 0.73264C35.7118 1.76696 34.2684 3.8356 34.2684 6.20592V15.17C34.2684 16.075 35.06 16.8077 36.0377 16.8077C37.0155 16.8077 37.807 16.075 37.807 15.17V10.0846H44.0927V15.17C44.0927 16.075 44.8842 16.8077 45.862 16.8077C46.8397 16.8077 47.6313 16.075 47.6313 15.17C47.6778 15.17 47.6778 6.72308 47.6778 6.20592ZM44.0927 6.29211V6.76618H44.0461H37.9001H37.8536V6.29211C37.8536 6.24901 37.8536 6.24901 37.8536 6.20592C37.8536 6.16282 37.8536 6.16282 37.8536 6.11972C37.9001 4.56824 39.297 3.27534 40.9731 3.27534C42.6493 3.27534 44.0461 4.52515 44.0927 6.11972C44.0927 6.16282 44.0927 6.16282 44.0927 6.20592C44.0927 6.24901 44.0927 6.24901 44.0927 6.29211ZM46.281 10.0846H46.2345C46.2345 10.0415 46.2345 10.0415 46.281 10.0846C46.281 10.0415 46.281 10.0415 46.281 10.0415V10.0846Z" fill="#FFD700"/>
<path d="M14.1544 6.20592V15.17C14.1544 16.075 13.313 16.8077 12.2737 16.8077C11.2344 16.8077 10.393 16.075 10.393 15.17V6.29211C10.393 6.24901 10.393 6.24901 10.393 6.20592C10.393 6.16282 10.393 6.16282 10.393 6.11972C10.3436 4.56824 8.85884 3.27534 7.07717 3.27534C5.24602 3.27534 3.81079 4.52515 3.7613 6.11972C3.7613 6.16282 3.7613 6.16282 3.7613 6.20592C3.7613 6.24901 3.7613 6.24901 3.7613 6.29211V15.17C3.7613 16.075 2.91995 16.8077 1.88065 16.8077C0.841335 16.8077 0 16.075 0 15.17V6.20592C0 3.8356 1.53421 1.76696 3.81078 0.73264C4.80059 0.258581 5.93889 0 7.12667 0C8.31442 0 9.45273 0.258581 10.4426 0.73264C12.6202 1.76696 14.1544 3.8356 14.1544 6.20592Z" fill="#FFD700"/>
<path fill-rule="evenodd" clip-rule="evenodd" d="M59.2512 30.6923C59.7264 30.6923 60.1488 30.7773 60.5711 30.9047C60.9934 31.0322 61.3102 31.2446 61.6269 31.4996C61.9437 31.7545 62.1549 32.0094 62.3133 32.3493C62.4716 32.6892 62.5772 33.0291 62.5772 33.4114C62.5772 33.9213 62.4188 34.3886 62.1021 34.8985C62.4188 35.2383 62.5772 35.6632 62.5772 36.0881C62.5772 36.3431 62.5244 36.5979 62.4188 36.8104C62.3133 37.0228 62.1549 37.2352 61.9437 37.4052C61.7325 37.5751 61.5214 37.7026 61.2046 37.83C60.9407 37.9575 60.6239 38 60.3071 38H56.506C56.3476 38 56.1893 37.9575 56.0837 37.83C55.9781 37.7026 55.9253 37.5751 55.9253 37.4477C55.9253 37.3202 55.9781 37.1503 56.1364 37.0653C56.2948 36.9378 56.4532 36.8954 56.6116 36.8954H60.2543C60.4127 36.8954 60.5183 36.8528 60.6766 36.8104C60.835 36.7679 60.9407 36.6829 61.0462 36.5555C61.1518 36.4705 61.2046 36.3431 61.2573 36.1731C61.2573 36.0456 61.2573 35.8757 61.1518 35.7057C60.9934 35.7907 60.835 35.8332 60.6766 35.8757C60.5183 35.9182 60.4127 35.9606 60.2543 36.0031C60.0959 36.0456 59.9376 36.0456 59.7792 36.0881C59.6208 36.0881 59.4624 36.1306 59.2512 36.1306C58.7761 36.1306 58.3009 36.0456 57.8786 35.9182C57.4563 35.7907 57.1395 35.5782 56.8228 35.3658C56.506 35.1109 56.2948 34.856 56.1364 34.5161C55.9781 34.1762 55.8725 33.8363 55.8725 33.4114C55.8725 33.0291 55.9781 32.6892 56.1364 32.3918C56.2948 32.0519 56.5588 31.7969 56.8756 31.542C57.1923 31.2872 57.5619 31.1172 57.9314 30.9472C58.4066 30.7773 58.8289 30.6923 59.2512 30.6923ZM59.2512 31.7545C58.9873 31.7545 58.7233 31.7969 58.5121 31.8819C58.2482 31.9669 58.037 32.0944 57.8786 32.2218C57.7202 32.3493 57.5619 32.5617 57.4563 32.7317C57.3507 32.9441 57.2979 33.1141 57.2979 33.3265C57.2979 33.5389 57.3507 33.7513 57.4563 33.9213C57.5619 34.1337 57.7202 34.3037 57.8786 34.4311C58.037 34.601 58.2482 34.686 58.5121 34.8135C58.7761 34.8985 59.0401 34.941 59.304 34.941C59.568 34.941 59.832 34.8985 60.0959 34.8135C60.3599 34.7286 60.5711 34.601 60.7295 34.4736C60.8878 34.3462 61.0462 34.1337 61.1518 33.9637C61.2573 33.7513 61.3102 33.5814 61.3102 33.369C61.3102 33.1565 61.2573 32.9441 61.1518 32.7317C61.0462 32.5192 60.8878 32.3493 60.6766 32.2218C60.4655 32.0944 60.2543 31.9669 60.0431 31.8819C59.7264 31.7969 59.5152 31.7545 59.2512 31.7545Z" fill="white"/>
<path fill-rule="evenodd" clip-rule="evenodd" d="M44.6209 28.5C44.775 28.5 44.9291 28.5476 45.0833 28.6903C45.2374 28.8329 45.2888 28.9757 45.2888 29.1184V34.398C45.2888 34.6834 45.3915 34.8737 45.5457 35.0639C45.6998 35.2542 45.9567 35.3018 46.2649 35.3018C46.4191 35.3018 46.6246 35.3494 46.7273 35.492C46.8815 35.5871 46.9329 35.7299 46.9329 35.9201C46.9329 36.0628 46.8815 36.2055 46.7273 36.3007C46.6246 36.3957 46.4705 36.4909 46.3163 36.5385H46.1108C45.8026 36.5385 45.5457 36.4909 45.2888 36.3482C45.0319 36.2531 44.775 36.0628 44.5695 35.8726C44.364 35.6823 44.2099 35.4445 44.1071 35.2066C44.0044 34.9688 43.953 34.6834 43.953 34.398V29.1184C43.953 28.9757 44.0044 28.8329 44.1585 28.6903C44.3127 28.5951 44.4668 28.5 44.6209 28.5Z" fill="white"/>
<path fill-rule="evenodd" clip-rule="evenodd" d="M51.4261 30.6923C51.8484 30.6923 52.2239 30.7844 52.5524 30.9225C52.9277 31.0605 53.2093 31.2907 53.4909 31.567C53.7725 31.8431 53.9602 32.1194 54.1479 32.4876C54.2887 32.8558 54.3825 33.2241 54.3825 33.6384C54.3825 34.0527 54.2887 34.421 54.1479 34.7432C54.0071 35.1114 53.7725 35.3876 53.5378 35.6639C53.2563 35.94 52.9747 36.1242 52.5993 36.3083C52.2239 36.4464 51.8484 36.5385 51.4261 36.5385C51.0038 36.5385 50.6283 36.4464 50.253 36.3083C49.8776 36.1702 49.596 35.94 49.3144 35.7098C49.0328 35.4337 48.8451 35.1575 48.6575 34.7892C48.5167 34.421 48.4228 34.0527 48.4228 33.6384C48.4228 33.2241 48.5167 32.8558 48.6575 32.5336C48.7982 32.1653 49.0328 31.8892 49.2675 31.6129C49.549 31.3368 49.8776 31.1526 50.206 30.9685C50.5814 30.7844 51.0038 30.6923 51.4261 30.6923ZM51.3792 31.8431C51.1445 31.8431 50.9099 31.8892 50.6753 31.9812C50.4407 32.0733 50.2529 32.2114 50.1122 32.3495C49.9714 32.4876 49.8306 32.6717 49.7368 32.9019C49.6429 33.1321 49.596 33.3622 49.596 33.5924C49.596 33.8226 49.6429 34.0527 49.7368 34.2829C49.8306 34.513 49.9714 34.6971 50.1122 34.8353C50.2529 34.9734 50.4407 35.1114 50.6753 35.2035C50.9099 35.2956 51.0977 35.3416 51.3792 35.3416C51.6139 35.3416 51.8484 35.2956 52.0831 35.2035C52.3177 35.1114 52.5054 34.9734 52.6462 34.8353C52.787 34.6971 52.9278 34.467 53.0216 34.2829C53.1155 34.0527 53.1624 33.8686 53.1624 33.5924C53.1155 33.1321 52.9747 32.7178 52.6462 32.3955C52.3177 32.0733 51.8954 31.8892 51.3792 31.8431Z" fill="white"/>
<path fill-rule="evenodd" clip-rule="evenodd" d="M64.6526 29.5143C64.6526 29.6918 64.6038 29.8249 64.4573 29.958C64.3109 30.091 64.1645 30.1354 64.018 30.1354C63.8228 30.1354 63.6763 30.091 63.5299 29.958C63.3835 29.8249 63.3346 29.6918 63.3346 29.5143C63.3346 29.3369 63.3835 29.2038 63.5299 29.0707C63.6763 28.9376 63.8228 28.8932 64.018 28.8932C64.2133 28.8932 64.3597 28.9376 64.4573 29.0707C64.6038 29.2038 64.6526 29.3369 64.6526 29.5143Z" fill="white"/>
<path fill-rule="evenodd" clip-rule="evenodd" d="M64.018 36.3463C63.8228 36.3463 63.6763 36.302 63.5299 36.1689C63.3835 36.0358 63.3346 35.9027 63.3346 35.7253V31.3332C63.3346 31.1558 63.3835 31.0226 63.5299 30.8895C63.6763 30.7565 63.8228 30.7121 64.018 30.7121C64.1645 30.7121 64.3597 30.7565 64.4573 30.8895C64.6038 31.0226 64.6526 31.1558 64.6526 31.3332V35.7253C64.6526 35.9027 64.6038 36.0358 64.4573 36.1689C64.3109 36.2576 64.1645 36.3463 64.018 36.3463Z" fill="white"/>
<path fill-rule="evenodd" clip-rule="evenodd" d="M65.5571 32.409C65.5571 32.177 65.6128 31.9451 65.7242 31.7594C65.8355 31.5275 66.0026 31.3419 66.1697 31.2027C66.3368 31.0635 66.5596 30.9243 66.8381 30.8315C67.0609 30.7387 67.3394 30.6923 67.6736 30.6923H70.5142C70.6813 30.6923 70.8484 30.7387 71.0155 30.8779C71.1269 31.0171 71.2383 31.1563 71.2383 31.2491C71.2383 31.3883 71.1826 31.5275 71.0155 31.6666C70.8484 31.8059 70.737 31.8523 70.5142 31.8523H67.785C67.5622 31.8523 67.3951 31.8987 67.228 32.0379C67.1167 32.1307 67.0609 32.2698 67.0609 32.4554C67.0609 32.5946 67.1167 32.7339 67.228 32.873C67.3394 33.0122 67.5065 33.0586 67.785 33.0586H69.5674C69.8458 33.0586 70.1243 33.105 70.3471 33.1978C70.5699 33.2906 70.7927 33.4298 70.9598 33.569C71.1269 33.7082 71.294 33.9401 71.3497 34.1258C71.4611 34.3578 71.5168 34.5433 71.5168 34.7753C71.5168 35.0538 71.4611 35.2857 71.3497 35.4713C71.2383 35.7033 71.0712 35.8889 70.9041 36.0281C70.6813 36.1673 70.4585 36.3064 70.18 36.3993C69.9016 36.4921 69.623 36.5385 69.2888 36.5385H66.6154C66.4483 36.5385 66.2812 36.4921 66.1141 36.3528C66.0026 36.2601 65.947 36.1209 65.947 35.9353C65.947 35.7961 66.0026 35.6569 66.1697 35.5177C66.2812 35.3785 66.4483 35.3321 66.671 35.3321H69.3446C69.5674 35.3321 69.7345 35.2857 69.9016 35.1929C70.0129 35.1001 70.1243 34.9609 70.1243 34.7753C70.1243 34.5897 70.0687 34.4506 69.9016 34.3578C69.7901 34.265 69.5674 34.2186 69.3446 34.2186H67.6179C67.3394 34.2186 67.1167 34.1722 66.8381 34.0793C66.6154 33.9865 66.3925 33.8474 66.2255 33.7082C66.0584 33.569 65.8913 33.337 65.7799 33.1514C65.6128 32.873 65.5571 32.641 65.5571 32.409Z" fill="white"/>
<path fill-rule="evenodd" clip-rule="evenodd" d="M73.5962 28.5C73.7776 28.5 73.9136 28.5479 74.0497 28.6914C74.1857 28.8349 74.2311 28.9785 74.2311 29.1699V30.4618H76.9521C77.1331 30.4618 77.2694 30.5096 77.3596 30.6531C77.4504 30.7967 77.5413 30.8924 77.5413 31.0359C77.5413 31.1795 77.4959 31.323 77.3596 31.4666C77.224 31.6102 77.0876 31.6579 76.9521 31.6579H74.2311V33.4283C74.2311 33.6676 74.2764 33.9068 74.3671 34.1461C74.4578 34.3853 74.5935 34.5767 74.7298 34.7202C74.8662 34.8638 75.0472 35.0074 75.2736 35.103C75.5009 35.1987 75.7273 35.2465 75.9545 35.2465C76.2265 35.2465 76.4529 35.1987 76.6347 35.1509C76.8157 35.0551 76.9975 34.9595 77.1331 34.816C77.2694 34.7202 77.405 34.6246 77.5868 34.6246C77.7678 34.6246 77.9041 34.6724 78.0405 34.816C78.1306 34.9116 78.2215 35.0551 78.2215 35.2465C78.2215 35.2944 78.2215 35.3901 78.176 35.438C78.176 35.4858 78.1306 35.5815 78.0852 35.6294C77.8132 35.9164 77.4959 36.1078 77.1785 36.2992C76.8612 36.4906 76.4984 36.5385 76.0901 36.5385C75.6819 36.5385 75.2736 36.4427 74.9116 36.2992C74.5488 36.1557 74.2311 35.9643 73.959 35.6772C73.6869 35.3901 73.4602 35.103 73.2788 34.7202C73.0974 34.3375 73.0067 33.9068 73.0067 33.4283V29.1699C73.0067 29.0263 73.0521 28.8349 73.1881 28.6914C73.2335 28.5957 73.4148 28.5 73.5962 28.5Z" fill="white"/>
<path fill-rule="evenodd" clip-rule="evenodd" d="M80.6635 29.5143C80.6635 29.6918 80.6151 29.8249 80.4683 29.958C80.3223 30.091 80.1755 30.1354 80.0295 30.1354C79.8336 30.1354 79.6876 30.091 79.5408 29.958C79.3948 29.8249 79.3456 29.6918 79.3456 29.5143C79.3456 29.3369 79.3948 29.2038 79.5408 29.0707C79.6876 28.9376 79.8336 28.8932 80.0295 28.8932C80.2247 28.8932 80.3707 28.9376 80.4683 29.0707C80.6151 29.2038 80.6635 29.3369 80.6635 29.5143Z" fill="white"/>
<path fill-rule="evenodd" clip-rule="evenodd" d="M80.0295 36.3463C79.8336 36.3463 79.6876 36.302 79.5408 36.1689C79.3948 36.0358 79.3456 35.9027 79.3456 35.7253V31.3332C79.3456 31.1558 79.3948 31.0226 79.5408 30.8895C79.6876 30.7565 79.8336 30.7121 80.0295 30.7121C80.1755 30.7121 80.3707 30.7565 80.4683 30.8895C80.6151 31.0226 80.6635 31.1558 80.6635 31.3332V35.7253C80.6635 35.9027 80.6151 36.0358 80.4683 36.1689C80.3223 36.2576 80.1755 36.3463 80.0295 36.3463Z" fill="white"/>
<path fill-rule="evenodd" clip-rule="evenodd" d="M84.9262 30.6923C85.7173 30.6923 86.4161 30.9707 87.021 31.5275C87.0679 31.5739 87.1149 31.6202 87.1149 31.713C87.1149 31.7594 87.1611 31.8523 87.1611 31.8987C87.1611 32.0843 87.1149 32.2234 86.9748 32.3162C86.9286 32.3626 86.8348 32.409 86.7886 32.4554C86.6955 32.5018 86.6485 32.5018 86.5554 32.5018C86.3692 32.5018 86.2298 32.4554 86.1367 32.3626C85.8112 32.0843 85.4387 31.8987 84.9731 31.8987C84.7399 31.8987 84.5075 31.9451 84.2743 32.0379C84.0419 32.1307 83.8556 32.2698 83.7156 32.409C83.5763 32.5482 83.4362 32.7802 83.3431 32.9658C83.25 33.1978 83.203 33.3834 83.203 33.6154C83.203 33.8474 83.25 34.0793 83.3431 34.3114C83.4362 34.5433 83.5763 34.7289 83.7156 34.8681C83.8556 35.0538 84.0881 35.1465 84.2743 35.2393C84.5075 35.3321 84.693 35.3785 84.9262 35.3321C85.3918 35.3321 85.7642 35.1929 86.1367 34.8217C86.2298 34.7289 86.323 34.6825 86.5092 34.6825C86.6493 34.6825 86.7886 34.7289 86.9286 34.8681C87.0679 35.0074 87.1149 35.1001 87.1149 35.2857C87.1149 35.3321 87.1149 35.4249 87.0679 35.4713C87.0217 35.5177 87.0217 35.6105 86.9748 35.6569C86.6955 35.9353 86.3699 36.1673 86.0436 36.3064C85.7181 36.4457 85.3448 36.5385 84.9262 36.5385C84.5067 36.5385 84.1343 36.4457 83.7618 36.3064C83.4362 36.1673 83.0637 35.8889 82.8306 35.6569C82.5512 35.3785 82.3657 35.1001 82.1795 34.7289C82.0394 34.3578 81.9463 33.9865 81.9463 33.6154C81.9463 33.2442 82.0394 32.873 82.1795 32.5018C82.3188 32.1307 82.5512 31.8523 82.8306 31.5739C83.1099 31.2955 83.4362 31.0635 83.7618 30.9243C84.0881 30.7851 84.5537 30.6923 84.9262 30.6923Z" fill="white"/>
<path fill-rule="evenodd" clip-rule="evenodd" d="M88.651 32.409C88.651 32.177 88.6994 31.9451 88.797 31.7594C88.8946 31.5275 89.0406 31.3419 89.1874 31.2027C89.3334 31.0635 89.5286 30.9243 89.7722 30.8315C89.9666 30.7387 90.2102 30.6923 90.503 30.6923H92.9882C93.135 30.6923 93.281 30.7387 93.427 30.8779C93.5246 31.0171 93.6222 31.1563 93.6222 31.2491C93.6222 31.3883 93.573 31.5275 93.427 31.6666C93.281 31.8059 93.1834 31.8523 92.9882 31.8523H90.6006C90.4054 31.8523 90.2594 31.8987 90.1134 32.0379C90.0158 32.1307 89.9666 32.2698 89.9666 32.4554C89.9666 32.5946 90.0158 32.7339 90.1134 32.873C90.2102 33.0122 90.357 33.0586 90.6006 33.0586H92.1598C92.4034 33.0586 92.647 33.105 92.8422 33.1978C93.0374 33.2906 93.2325 33.4298 93.3786 33.569C93.5246 33.7082 93.6706 33.9401 93.7198 34.1258C93.8173 34.3578 93.8658 34.5433 93.8658 34.7753C93.8658 35.0538 93.8173 35.2857 93.7198 35.4713C93.6222 35.7033 93.4761 35.8889 93.3294 36.0281C93.135 36.1673 92.9398 36.3064 92.6962 36.3993C92.4526 36.4921 92.209 36.5385 91.9162 36.5385H89.577C89.431 36.5385 89.2842 36.4921 89.1382 36.3528C89.0406 36.2601 88.9922 36.1209 88.9922 35.9353C88.9922 35.7961 89.0406 35.6569 89.1874 35.5177C89.2842 35.3785 89.431 35.3321 89.6254 35.3321H91.9654C92.1598 35.3321 92.3065 35.2857 92.4526 35.1929C92.5502 35.1001 92.647 34.9609 92.647 34.7753C92.647 34.5897 92.5986 34.4506 92.4526 34.3578C92.355 34.265 92.1598 34.2186 91.9654 34.2186H90.4546C90.2102 34.2186 90.0158 34.1722 89.7722 34.0793C89.577 33.9865 89.3818 33.8474 89.2358 33.7082C89.0898 33.569 88.9438 33.337 88.8462 33.1514C88.651 32.873 88.651 32.641 88.651 32.409Z" fill="white"/>
<path d="M84.1738 18.9851C84.1254 18.8508 84.1254 18.7166 84.0285 18.5824C84.0285 18.5824 84.0285 18.5376 83.9801 18.5376C83.8832 18.4035 83.738 18.2692 83.545 18.2692C83.4966 18.2692 83.3998 18.2692 83.3513 18.3139C83.2545 18.3587 83.2061 18.4482 83.1092 18.4929C83.0608 18.5376 82.9163 18.6719 82.9163 18.6719C79.1922 22.2959 74.7909 24.4882 69.278 24.4882C63.7647 24.4882 59.3639 22.2959 55.64 18.6719C55.64 18.6719 55.4949 18.4929 55.4465 18.4929C55.3982 18.4035 55.3014 18.3587 55.2047 18.3139C55.1564 18.2692 55.108 18.2692 55.0112 18.2692C54.8179 18.2692 54.6727 18.4035 54.576 18.5376C54.576 18.5376 54.576 18.5824 54.5277 18.5824C54.4793 18.7166 54.4309 18.8508 54.3826 18.9851C54.3826 19.0745 54.3826 19.1193 54.3826 19.2088C54.3826 19.2983 54.3826 19.3877 54.4309 19.4773C54.4793 19.6114 54.576 19.7457 54.6244 19.8352C54.8179 20.1036 55.0597 20.372 55.2531 20.6405C55.4465 20.9089 55.6883 21.1774 55.9302 21.4011C56.4138 21.938 56.9458 22.3854 57.4778 22.8775C58.0097 23.325 58.5901 23.7724 59.2187 24.1303C61.395 25.5173 63.7648 26.4121 66.3763 26.8148C67.3436 26.949 68.2624 27.0385 69.2297 27.0385C70.1485 27.0385 71.1158 26.949 72.083 26.8148C74.6948 26.4121 77.0646 25.5173 79.2406 24.1303C79.8694 23.7276 80.4497 23.325 80.9816 22.8775C81.5135 22.4302 82.0454 21.938 82.5289 21.4011C82.771 21.1327 83.0131 20.9089 83.2061 20.6405C83.3998 20.372 83.6419 20.1483 83.8348 19.8352C83.9317 19.7009 83.9801 19.6114 84.0285 19.4773C84.0769 19.3877 84.0769 19.2983 84.0769 19.2088C84.2222 19.1641 84.1738 19.0745 84.1738 18.9851Z" fill="white"/>
</g>
<defs>
<clipPath id="clip0_2_2">
<rect width="111" height="38" fill="white"/>
</clipPath>
</defs>
</svg>
